<?xml version="1.0" encoding="UTF-8" standalone="no"?>
<!-- Generator: Adobe Illustrator 18.1.1, SVG Export Plug-In . SVG Version: 6.00 Build 0)  -->

<svg
   xmlns:dc="http://purl.org/dc/elements/1.1/"
   xmlns:cc="http://creativecommons.org/ns#"
   xmlns:rdf="http://www.w3.org/1999/02/22-rdf-syntax-ns#"
   xmlns:svg="http://www.w3.org/2000/svg"
   xmlns="http://www.w3.org/2000/svg"
   xmlns:sodipodi="http://sodipodi.sourceforge.net/DTD/sodipodi-0.dtd"
   xmlns:inkscape="http://www.inkscape.org/namespaces/inkscape"
   version="1.1"
   id="Capa_1"
   x="0px"
   y="0px"
   viewBox="0 0 232.153 232.153"
   style="enable-background:new 0 0 232.153 232.153;"
   xml:space="preserve"
   sodipodi:docname="arrowRight_w.svg"
   inkscape:version="0.92.3 (2405546, 2018-03-11)"><metadata
   id="metadata109"><rdf:RDF><cc:Work
       rdf:about=""><dc:format>image/svg+xml</dc:format><dc:type
         rdf:resource="http://purl.org/dc/dcmitype/StillImage" /><dc:title></dc:title></cc:Work></rdf:RDF></metadata><defs
   id="defs107" /><sodipodi:namedview
   pagecolor="#ffffff"
   bordercolor="#666666"
   borderopacity="1"
   objecttolerance="10"
   gridtolerance="10"
   guidetolerance="10"
   inkscape:pageopacity="0"
   inkscape:pageshadow="2"
   inkscape:window-width="1920"
   inkscape:window-height="1057"
   id="namedview105"
   showgrid="false"
   inkscape:zoom="3.8250636"
   inkscape:cx="116.0765"
   inkscape:cy="116.0765"
   inkscape:window-x="-8"
   inkscape:window-y="-8"
   inkscape:window-maximized="1"
   inkscape:current-layer="Capa_1" />
<g
   id="Play">
	<path
   style="fill-rule:evenodd;clip-rule:evenodd;"
   d="M203.791,99.628L49.307,2.294c-4.567-2.719-10.238-2.266-14.521-2.266   c-17.132,0-17.056,13.227-17.056,16.578v198.94c0,2.833-0.075,16.579,17.056,16.579c4.283,0,9.955,0.451,14.521-2.267   l154.483-97.333c12.68-7.545,10.489-16.449,10.489-16.449S216.471,107.172,203.791,99.628z"
   id="path71" />
</g>
<g
   id="g74">
</g>
<g
   id="g76">
</g>
<g
   id="g78">
</g>
<g
   id="g80">
</g>
<g
   id="g82">
</g>
<g
   id="g84">
</g>
<g
   id="g86">
</g>
<g
   id="g88">
</g>
<g
   id="g90">
</g>
<g
   id="g92">
</g>
<g
   id="g94">
</g>
<g
   id="g96">
</g>
<g
   id="g98">
</g>
<g
   id="g100">
</g>
<g
   id="g102">
</g>
<path
   style="fill:#ffffff;stroke-width:0.26143357"
   d="m 31.072339,231.77394 c -2.208173,-0.30509 -5.207678,-1.38199 -6.889735,-2.4736 -2.72205,-1.76655 -4.646168,-4.50051 -5.658721,-8.04043 l -0.615684,-2.15244 V 115.97193 12.836388 l 0.603196,-2.083595 c 0.798343,-2.7576834 1.706243,-4.3800928 3.454403,-6.1729855 1.643871,-1.6859354 4.127145,-3.04923 6.92261,-3.80044925 1.559726,-0.41914168 2.776118,-0.49097311 8.235157,-0.48630951 8.961109,0.007655 8.606526,-0.10865484 18.280101,5.99626496 3.246378,2.048763 38.078439,23.9944933 77.404584,48.7682903 39.32614,24.773797 72.17114,45.496016 72.98889,46.049386 3.66033,2.47694 6.65583,6.13253 7.82645,9.55107 0.53795,1.57097 0.60756,2.23815 0.5817,5.5753 -0.0244,3.14299 -0.12341,4.05293 -0.57966,5.32479 -1.07317,2.99162 -3.10836,5.73987 -5.98047,8.07577 -1.52162,1.23755 -157.13364,99.48052 -159.491263,100.69207 -2.179059,1.11978 -4.686845,1.51754 -10.115314,1.60437 -2.875769,0.046 -6.010579,-0.0244 -6.966244,-0.15642 z"
   id="path111"
   inkscape:connector-curvature="0" /></svg>