<?xml version="1.0" encoding="UTF-8" standalone="no"?>
<!-- Generator: Adobe Illustrator 18.1.1, SVG Export Plug-In . SVG Version: 6.00 Build 0)  -->

<svg
   xmlns:dc="http://purl.org/dc/elements/1.1/"
   xmlns:cc="http://creativecommons.org/ns#"
   xmlns:rdf="http://www.w3.org/1999/02/22-rdf-syntax-ns#"
   xmlns:svg="http://www.w3.org/2000/svg"
   xmlns="http://www.w3.org/2000/svg"
   xmlns:sodipodi="http://sodipodi.sourceforge.net/DTD/sodipodi-0.dtd"
   xmlns:inkscape="http://www.inkscape.org/namespaces/inkscape"
   version="1.1"
   id="Capa_1"
   x="0px"
   y="0px"
   viewBox="0 0 232.153 232.153"
   style="enable-background:new 0 0 232.153 232.153;"
   xml:space="preserve"
   sodipodi:docname="arrowLeft_w.svg"
   inkscape:version="0.92.3 (2405546, 2018-03-11)"><metadata
   id="metadata88"><rdf:RDF><cc:Work
       rdf:about=""><dc:format>image/svg+xml</dc:format><dc:type
         rdf:resource="http://purl.org/dc/dcmitype/StillImage" /><dc:title></dc:title></cc:Work></rdf:RDF></metadata><defs
   id="defs86" /><sodipodi:namedview
   pagecolor="#ffffff"
   bordercolor="#666666"
   borderopacity="1"
   objecttolerance="10"
   gridtolerance="10"
   guidetolerance="10"
   inkscape:pageopacity="0"
   inkscape:pageshadow="2"
   inkscape:window-width="1920"
   inkscape:window-height="1057"
   id="namedview84"
   showgrid="false"
   inkscape:zoom="3.8250636"
   inkscape:cx="116.0765"
   inkscape:cy="116.0765"
   inkscape:window-x="-8"
   inkscape:window-y="-8"
   inkscape:window-maximized="1"
   inkscape:current-layer="Capa_1" />
<g
   id="Play"
   transform="rotate(-180,116.07684,116.07635)">
	<path
   style="clip-rule:evenodd;fill-rule:evenodd"
   d="M 203.791,99.628 49.307,2.294 C 44.74,-0.425 39.069,0.028 34.786,0.028 17.654,0.028 17.73,13.255 17.73,16.606 v 198.94 c 0,2.833 -0.075,16.579 17.056,16.579 4.283,0 9.955,0.451 14.521,-2.267 L 203.79,132.525 c 12.68,-7.545 10.489,-16.449 10.489,-16.449 0,0 2.192,-8.904 -10.488,-16.448 z"
   id="path50"
   inkscape:connector-curvature="0" />
</g>
<g
   id="g53">
</g>
<g
   id="g55">
</g>
<g
   id="g57">
</g>
<g
   id="g59">
</g>
<g
   id="g61">
</g>
<g
   id="g63">
</g>
<g
   id="g65">
</g>
<g
   id="g67">
</g>
<g
   id="g69">
</g>
<g
   id="g71">
</g>
<g
   id="g73">
</g>
<g
   id="g75">
</g>
<g
   id="g77">
</g>
<g
   id="g79">
</g>
<g
   id="g81">
</g>
<path
   style="fill:#ffffff;stroke-width:0.26143357"
   d="m 189.15736,231.7745 c -1.90536,-0.29822 -4.1786,-0.94515 -5.2354,-1.48991 -2.26063,-1.16533 -157.907974,-99.4308 -159.361258,-100.61019 -2.87349,-2.33195 -4.970149,-5.15245 -6.033332,-8.11625 -0.456246,-1.27186 -0.555301,-2.1818 -0.579657,-5.32479 -0.02586,-3.33715 0.04375,-4.00433 0.581695,-5.5753 1.2976,-3.78938 4.304499,-7.24674 8.921115,-10.25759 C 33.462768,96.479427 182.89149,2.4428466 184.01326,1.8744039 c 2.71808,-1.37735632 4.09803,-1.57544647 11.01618,-1.58135659 5.9233,-0.00506 6.56244,0.0399606 8.49659,0.59849713 5.42097,1.56545426 8.72905,4.95565886 10.25244,10.50695756 0.44382,1.617289 0.46633,6.67156 0.46633,104.704138 0,97.87697 -0.0231,103.09509 -0.46498,104.81797 -1.40813,5.49076 -4.80983,8.91685 -10.30243,10.37629 -1.67461,0.44496 -3.00887,0.5589 -7.40222,0.63215 -2.94766,0.0491 -6.06068,-0.0204 -6.91781,-0.15455 z"
   id="path199"
   inkscape:connector-curvature="0" /></svg>