<?xml version="1.0" encoding="UTF-8" standalone="no"?>
<!-- Generator: Adobe Illustrator 18.1.1, SVG Export Plug-In . SVG Version: 6.00 Build 0)  -->

<svg
   xmlns:dc="http://purl.org/dc/elements/1.1/"
   xmlns:cc="http://creativecommons.org/ns#"
   xmlns:rdf="http://www.w3.org/1999/02/22-rdf-syntax-ns#"
   xmlns:svg="http://www.w3.org/2000/svg"
   xmlns="http://www.w3.org/2000/svg"
   xmlns:sodipodi="http://sodipodi.sourceforge.net/DTD/sodipodi-0.dtd"
   xmlns:inkscape="http://www.inkscape.org/namespaces/inkscape"
   version="1.1"
   id="Capa_1"
   x="0px"
   y="0px"
   viewBox="0 0 232.153 232.153"
   style="enable-background:new 0 0 232.153 232.153;"
   xml:space="preserve"
   sodipodi:docname="arrowDown_w.svg"
   inkscape:version="0.92.3 (2405546, 2018-03-11)"><metadata
   id="metadata88"><rdf:RDF><cc:Work
       rdf:about=""><dc:format>image/svg+xml</dc:format><dc:type
         rdf:resource="http://purl.org/dc/dcmitype/StillImage" /><dc:title></dc:title></cc:Work></rdf:RDF></metadata><defs
   id="defs86" /><sodipodi:namedview
   pagecolor="#ffffff"
   bordercolor="#666666"
   borderopacity="1"
   objecttolerance="10"
   gridtolerance="10"
   guidetolerance="10"
   inkscape:pageopacity="0"
   inkscape:pageshadow="2"
   inkscape:window-width="1920"
   inkscape:window-height="1057"
   id="namedview84"
   showgrid="false"
   inkscape:zoom="3.8250636"
   inkscape:cx="116.0765"
   inkscape:cy="116.0765"
   inkscape:window-x="-8"
   inkscape:window-y="-8"
   inkscape:window-maximized="1"
   inkscape:current-layer="Capa_1" />
<g
   id="Play"
   transform="rotate(90,116.07684,116.07635)">
	<path
   style="clip-rule:evenodd;fill-rule:evenodd"
   d="M 203.791,99.628 49.307,2.294 C 44.74,-0.425 39.069,0.028 34.786,0.028 17.654,0.028 17.73,13.255 17.73,16.606 v 198.94 c 0,2.833 -0.075,16.579 17.056,16.579 4.283,0 9.955,0.451 14.521,-2.267 L 203.79,132.525 c 12.68,-7.545 10.489,-16.449 10.489,-16.449 0,0 2.192,-8.904 -10.488,-16.448 z"
   id="path50"
   inkscape:connector-curvature="0" />
</g>
<g
   id="g53">
</g>
<g
   id="g55">
</g>
<g
   id="g57">
</g>
<g
   id="g59">
</g>
<g
   id="g61">
</g>
<g
   id="g63">
</g>
<g
   id="g65">
</g>
<g
   id="g67">
</g>
<g
   id="g69">
</g>
<g
   id="g71">
</g>
<g
   id="g73">
</g>
<g
   id="g75">
</g>
<g
   id="g77">
</g>
<g
   id="g79">
</g>
<g
   id="g81">
</g>
<path
   style="fill:#ffffff;stroke-width:0.26143357"
   d="m 111.40006,213.8716 c -3.24616,-0.90496 -6.77021,-3.45602 -9.22547,-6.67831 C 101.08787,205.76708 9.6292817,60.939626 2.8297433,49.87771 1.2850718,47.364743 0.53311863,44.813836 0.28517731,41.245592 0.01621394,37.374808 0.34526144,30.571519 0.89938064,28.546505 1.5947605,26.005256 3.0278932,23.586648 4.846191,21.88572 c 1.9137465,-1.790216 3.6260083,-2.691996 6.502629,-3.424675 2.055678,-0.523584 2.676893,-0.526704 104.8584,-0.526704 101.02112,0 102.82474,0.0088 104.78176,0.509287 5.25286,1.343457 8.41467,4.271223 10.01531,9.273972 1.33467,4.171465 1.32479,14.577932 -0.0177,18.576954 -0.36782,1.095731 -0.83179,2.251053 -1.03105,2.567385 -0.19924,0.316329 -22.33225,35.456919 -49.18446,78.090201 -26.85221,42.63327 -49.28795,78.20279 -49.8572,79.04337 -2.22855,3.29078 -5.79525,6.25796 -9.04777,7.52696 -1.94338,0.75822 -8.24465,0.96843 -10.4661,0.34913 z"
   id="path243"
   inkscape:connector-curvature="0" /></svg>