<?xml version="1.0" encoding="UTF-8" standalone="no"?>
<!-- Generator: Adobe Illustrator 18.1.1, SVG Export Plug-In . SVG Version: 6.00 Build 0)  -->

<svg
   xmlns:dc="http://purl.org/dc/elements/1.1/"
   xmlns:cc="http://creativecommons.org/ns#"
   xmlns:rdf="http://www.w3.org/1999/02/22-rdf-syntax-ns#"
   xmlns:svg="http://www.w3.org/2000/svg"
   xmlns="http://www.w3.org/2000/svg"
   xmlns:sodipodi="http://sodipodi.sourceforge.net/DTD/sodipodi-0.dtd"
   xmlns:inkscape="http://www.inkscape.org/namespaces/inkscape"
   version="1.1"
   id="Capa_1"
   x="0px"
   y="0px"
   viewBox="0 0 232.153 232.153"
   style="enable-background:new 0 0 232.153 232.153;"
   xml:space="preserve"
   sodipodi:docname="arrowUp_bL.svg"
   inkscape:version="0.92.3 (2405546, 2018-03-11)"><metadata
   id="metadata88"><rdf:RDF><cc:Work
       rdf:about=""><dc:format>image/svg+xml</dc:format><dc:type
         rdf:resource="http://purl.org/dc/dcmitype/StillImage" /><dc:title></dc:title></cc:Work></rdf:RDF></metadata><defs
   id="defs86" /><sodipodi:namedview
   pagecolor="#ffffff"
   bordercolor="#666666"
   borderopacity="1"
   objecttolerance="10"
   gridtolerance="10"
   guidetolerance="10"
   inkscape:pageopacity="0"
   inkscape:pageshadow="2"
   inkscape:window-width="1920"
   inkscape:window-height="1057"
   id="namedview84"
   showgrid="false"
   inkscape:zoom="3.8250636"
   inkscape:cx="116.0765"
   inkscape:cy="116.0765"
   inkscape:window-x="-8"
   inkscape:window-y="-8"
   inkscape:window-maximized="1"
   inkscape:current-layer="Capa_1" />
<g
   id="Play"
   transform="rotate(-90,116.07684,116.07635)">
	<path
   style="clip-rule:evenodd;fill-rule:evenodd"
   d="M 203.791,99.628 49.307,2.294 C 44.74,-0.425 39.069,0.028 34.786,0.028 17.654,0.028 17.73,13.255 17.73,16.606 v 198.94 c 0,2.833 -0.075,16.579 17.056,16.579 4.283,0 9.955,0.451 14.521,-2.267 L 203.79,132.525 c 12.68,-7.545 10.489,-16.449 10.489,-16.449 0,0 2.192,-8.904 -10.488,-16.448 z"
   id="path50"
   inkscape:connector-curvature="0" />
</g>
<g
   id="g53">
</g>
<g
   id="g55">
</g>
<g
   id="g57">
</g>
<g
   id="g59">
</g>
<g
   id="g61">
</g>
<g
   id="g63">
</g>
<g
   id="g65">
</g>
<g
   id="g67">
</g>
<g
   id="g69">
</g>
<g
   id="g71">
</g>
<g
   id="g73">
</g>
<g
   id="g75">
</g>
<g
   id="g77">
</g>
<g
   id="g79">
</g>
<g
   id="g81">
</g>
<path
   style="fill:#ffffff;stroke-width:0.26143357"
   d="M 11.633792,213.83995 C 6.1583054,212.67793 2.389395,209.10726 0.90330813,203.67386 0.33433984,201.59361 0.00173183,194.74771 0.28771207,191.00336 0.5163908,188.00926 0.8837562,186.21172 1.624291,184.4634 2.228096,183.03789 100.82245,26.642314 102.2788,24.799888 c 2.54212,-3.216018 5.69157,-5.454095 9.07399,-6.448208 1.80624,-0.530864 7.41722,-0.564087 9.32821,-0.05523 3.21805,0.856898 6.6446,3.28061 9.19432,6.50344 1.58106,1.998461 100.03578,158.22759 100.71986,159.82349 1.01998,2.37953 1.34644,4.93237 1.33515,10.44071 -0.008,3.73426 -0.13128,5.83494 -0.43083,7.32014 -0.94595,4.69021 -3.49397,8.20545 -7.28523,10.05068 -4.10843,1.9996 5.52101,1.83847 -108.45354,1.81472 C 26.323611,214.231 13.233773,214.1795 11.633792,213.83995 Z"
   id="path155"
   inkscape:connector-curvature="0" /><path
   style="fill:#0000b0;stroke:none;stroke-width:0.26143357;fill-opacity:1"
   d="M 12.597688,213.74508 C 8.2826552,213.36925 4.1524005,210.52425 2.2190135,206.59606 0.77459882,203.66135 0.45878862,201.64777 0.4295054,195.1863 0.40300524,189.33892 0.6471297,187.16696 1.5661182,185.07393 2.284769,183.43717 25.873916,145.81928 70.144526,75.711158 98.472936,30.849526 102.19616,25.049167 103.72232,23.400733 c 1.85821,-2.007091 4.86726,-4.004229 7.07166,-4.693531 2.5381,-0.793645 8.38887,-0.80252 10.62633,-0.01612 2.37249,0.833864 4.24455,2.059676 6.43027,4.210496 1.7605,1.732391 2.9676,3.49838 10.36444,15.163146 28.45672,44.876091 89.90951,142.538216 91.81419,145.913116 1.40321,2.48635 1.68992,4.34602 1.68774,10.94702 -0.002,6.65895 -0.2671,8.43628 -1.69821,11.39435 -1.18673,2.45296 -3.64117,4.89221 -6.23161,6.19304 -1.89237,0.95028 -2.09752,0.99337 -5.88226,1.23556 -4.5816,0.29317 -201.939946,0.29055 -205.307182,-0.003 z"
   id="path859"
   inkscape:connector-curvature="0" /></svg>