<?xml version="1.0" encoding="UTF-8" standalone="no"?>
<svg
   xmlns:dc="http://purl.org/dc/elements/1.1/"
   xmlns:cc="http://creativecommons.org/ns#"
   xmlns:rdf="http://www.w3.org/1999/02/22-rdf-syntax-ns#"
   xmlns:svg="http://www.w3.org/2000/svg"
   xmlns="http://www.w3.org/2000/svg"
   xmlns:sodipodi="http://sodipodi.sourceforge.net/DTD/sodipodi-0.dtd"
   xmlns:inkscape="http://www.inkscape.org/namespaces/inkscape"
   height="512pt"
   viewBox="0 0 512 512"
   width="512pt"
   version="1.1"
   id="svg851"
   sodipodi:docname="stop_pressed.svg"
   inkscape:version="0.92.3 (2405546, 2018-03-11)">
  <metadata
     id="metadata857">
    <rdf:RDF>
      <cc:Work
         rdf:about="">
        <dc:format>image/svg+xml</dc:format>
        <dc:type
           rdf:resource="http://purl.org/dc/dcmitype/StillImage" />
        <dc:title></dc:title>
      </cc:Work>
    </rdf:RDF>
  </metadata>
  <defs
     id="defs855" />
  <sodipodi:namedview
     pagecolor="#ffffff"
     bordercolor="#666666"
     borderopacity="1"
     objecttolerance="10"
     gridtolerance="10"
     guidetolerance="10"
     inkscape:pageopacity="0"
     inkscape:pageshadow="2"
     inkscape:window-width="1920"
     inkscape:window-height="1057"
     id="namedview853"
     showgrid="false"
     inkscape:zoom="1.3007813"
     inkscape:cx="341.33333"
     inkscape:cy="341.33333"
     inkscape:window-x="-8"
     inkscape:window-y="-8"
     inkscape:window-maximized="1"
     inkscape:current-layer="svg851" />
  <path
     d="m496.382812 134.335938-118.71875-118.699219c-10.089843-10.089844-23.464843-15.636719-37.71875-15.636719h-167.890624c-14.253907 0-27.628907 5.546875-37.71875 15.617188l-118.71875 118.71875c-10.070313 10.089843-15.617188 23.464843-15.617188 37.71875v167.871093c0 14.25 5.546875 27.648438 15.617188 37.738281l118.71875 118.699219c10.089843 10.089844 23.464843 15.636719 37.71875 15.636719h167.890624c14.230469 0 27.628907-5.546875 37.71875-15.617188l118.71875-118.699218c10.070313-10.109375 15.617188-23.484375 15.617188-37.738282v-167.890624c0-14.253907-5.546875-27.628907-15.617188-37.71875zm0 0"
     fill="#f44336"
     id="path837" />
  <path
     d="m339.945312 512h-167.890624c-14.230469 0-27.628907-5.546875-37.71875-15.617188l-118.71875-118.699218c-10.070313-10.109375-15.617188-23.484375-15.617188-37.738282v-167.890624c0-14.253907 5.546875-27.628907 15.617188-37.71875l118.71875-118.699219c10.089843-10.089844 23.464843-15.636719 37.71875-15.636719h167.890624c14.230469 0 27.628907 5.546875 37.71875 15.617188l118.71875 118.699218c10.070313 10.109375 15.617188 23.484375 15.617188 37.738282v167.871093c0 14.25-5.546875 27.648438-15.617188 37.738281l-118.71875 118.699219c-10.089843 10.089844-23.464843 15.636719-37.71875 15.636719zm-167.890624-490.667969c-8.429688 0-16.664063 3.414063-22.636719 9.367188l-118.71875 118.71875c-6.039063 6.039062-9.367188 14.082031-9.367188 22.636719v167.871093c0 8.554688 3.328125 16.597657 9.367188 22.65625l118.71875 118.699219c5.972656 5.972656 14.207031 9.386719 22.636719 9.386719h167.890624c8.429688 0 16.664063-3.414063 22.636719-9.367188l118.71875-118.699219c6.039063-6.058593 9.367188-14.101562 9.367188-22.65625v-167.890624c0-8.554688-3.328125-16.597657-9.367188-22.65625l-118.71875-118.699219c-5.972656-5.953125-14.207031-9.367188-22.636719-9.367188zm0 0"
     id="path839" />
  <path
     d="m106.644531 341.332031c-22.546875 0-41.277343-19.796875-42.644531-45.035156-.320312-5.886719 4.203125-10.921875 10.089844-11.21875 5.675781-.8125 10.902344 4.160156 11.242187 10.046875.746094 13.953125 10.113281 24.875 21.3125 24.875 11.777344 0 21.355469-11.96875 21.355469-26.667969 0-17.640625-10.878906-23.230469-22.65625-26.601562l-3.15625-.9375c-31.554688-9.023438-38.1875-30.613281-38.1875-47.125 0-26.453125 19.136719-48 42.6875-48 22.527344 0 41.257812 19.773437 42.625 45.011719.320312 5.867187-4.183594 10.921874-10.070312 11.222656-5.84375.660156-10.921876-4.183594-11.222657-10.070313-.765625-13.910156-10.132812-24.832031-21.332031-24.832031-11.777344 0-21.355469 11.96875-21.355469 26.667969 0 17.683593 10.925781 23.253906 22.699219 26.601562 0 .019531 3.179688.960938 3.179688.960938 25.300781 7.273437 38.121093 23.125 38.121093 47.101562 0 26.453125-19.132812 48-42.6875 48zm0 0"
     id="path841" />
  <path
     d="m245.332031 192h-85.332031c-5.886719 0-10.667969-4.777344-10.667969-10.667969 0-5.886719 4.78125-10.664062 10.667969-10.664062h85.332031c5.890625 0 10.667969 4.777343 10.667969 10.664062 0 5.890625-4.777344 10.667969-10.667969 10.667969zm0 0"
     id="path843" />
  <path
     d="m202.667969 341.332031c-5.890625 0-10.667969-4.777343-10.667969-10.664062v-149.335938c0-5.886719 4.777344-10.664062 10.667969-10.664062 5.886719 0 10.664062 4.777343 10.664062 10.664062v149.335938c0 5.886719-4.777343 10.664062-10.664062 10.664062zm0 0"
     id="path845" />
  <path
     d="m298.667969 341.332031c-23.53125 0-42.667969-19.132812-42.667969-42.664062v-85.335938c0-23.53125 19.136719-42.664062 42.667969-42.664062s42.664062 19.132812 42.664062 42.664062v85.335938c0 23.53125-19.132812 42.664062-42.664062 42.664062zm0-149.332031c-11.757813 0-21.335938 9.558594-21.335938 21.332031v85.335938c0 11.773437 9.578125 21.332031 21.335938 21.332031 11.753906 0 21.332031-9.558594 21.332031-21.332031v-85.335938c0-11.773437-9.578125-21.332031-21.332031-21.332031zm0 0"
     id="path847" />
  <path
     d="m373.332031 341.332031c-5.886719 0-10.664062-4.777343-10.664062-10.664062v-149.335938c0-5.886719 4.777343-10.664062 10.664062-10.664062h42.667969c17.644531 0 32 14.355469 32 32v42.664062c0 17.644531-14.355469 32-32 32h-32v53.335938c0 5.886719-4.777344 10.664062-10.667969 10.664062zm10.667969-85.332031h32c5.886719 0 10.667969-4.800781 10.667969-10.667969v-42.664062c0-5.867188-4.78125-10.667969-10.667969-10.667969h-32zm0 0"
     id="path849" />
  <path
     style="fill:#aa0000;stroke:none;stroke-width:0.76876879"
     d="m 220.07986,652.75277 c -2.63176,-0.57185 -7.30203,-2.3299 -10.37838,-3.90679 -5.24909,-2.69059 -10.75479,-8.02896 -89.44947,-86.73099 -90.205316,-90.21375 -86.473622,-86.16316 -90.009642,-97.70178 -1.346119,-4.3926 -1.413539,-10.25935 -1.413539,-123.003 0,-112.67828 0.06808,-118.611 1.411009,-122.96281 3.676273,-11.91309 -0.75332,-7.10191 90.332652,-98.11441 77.23829,-77.17599 84.72322,-84.43993 89.30138,-86.66491 10.4,-5.054378 2.33961,-4.762374 131.45946,-4.762374 129.01529,0 120.94945,-0.28977 131.45946,4.722757 4.61637,2.20168 11.41853,8.802802 89.30138,86.662067 91.07708,91.04948 86.65736,86.24695 90.33266,98.15687 1.34293,4.35181 1.41101,10.28453 1.41101,122.96281 0,112.74365 -0.0674,118.6104 -1.41354,123.003 -3.53602,11.53862 0.19567,7.48803 -90.00964,97.70178 -78.55506,78.56239 -84.20809,84.04434 -89.42409,86.71766 -10.38508,5.3226 -3.47412,5.0605 -132.04162,5.0076 -94.54804,-0.0389 -116.97181,-0.24066 -120.86909,-1.08748 z M 155.29129,453.67688 c 6.308,-1.68752 15.95339,-6.75032 20.95578,-10.99955 9.3178,-7.9149 17.04896,-20.09516 20.60477,-32.46231 2.5433,-8.84565 2.92463,-25.68096 0.79934,-35.29067 -3.07085,-13.88519 -10.06514,-24.90711 -21.07732,-33.21463 -7.72956,-5.83112 -15.8648,-9.71363 -29.73903,-14.1928 -6.13093,-1.97931 -12.87687,-4.46067 -14.99099,-5.51413 -11.83271,-5.89622 -17.49455,-15.65397 -17.4781,-30.12219 0.009,-7.6399 0.99157,-12.45276 3.7217,-18.22378 2.58226,-5.45843 8.8319,-12.18716 13.68585,-14.73496 3.35087,-1.75885 4.85513,-2.05464 10.44893,-2.05464 8.01282,0 12.19149,1.88885 18.17493,8.21545 5.84211,6.17717 8.63819,12.62532 9.92919,22.89811 0.68941,5.48573 1.51789,7.58823 4.04089,10.25482 3.01682,3.18852 5.72297,4.35179 10.12379,4.35179 5.03381,0 8.27826,-1.39382 11.32692,-4.86605 2.9697,-3.38231 3.65142,-6.58725 3.03495,-14.26822 -0.62177,-7.74703 -2.80144,-15.09806 -6.97762,-23.5324 -7.30259,-14.74848 -19.14385,-25.27928 -33.89329,-30.14234 -8.62145,-2.84259 -21.85594,-2.99787 -30.36636,-0.35629 -19.18584,5.95515 -33.905621,21.93645 -40.128599,43.5677 -1.530089,5.31863 -1.767531,7.86515 -1.756189,18.83483 0.01497,14.4805 0.866014,18.73738 5.763512,28.82883 5.631306,11.60349 14.523316,20.47501 26.960896,26.89877 3.67859,1.89992 12.50561,5.36931 19.6156,7.70977 7.11,2.34046 14.47681,5.16348 16.37069,6.27336 9.06133,5.3103 14.10631,13.03143 15.36305,23.51252 2.05691,17.15425 -5.49699,33.4251 -18.22208,39.24977 -4.97616,2.27775 -13.7264,2.28624 -18.6796,0.0181 -9.97952,-4.56974 -17.29359,-16.09768 -18.70158,-29.47615 -1.00436,-9.5433 -6.24614,-15.02373 -14.26138,-14.91069 -2.325526,0.0328 -5.301199,0.61587 -6.612608,1.29573 -3.031813,1.57176 -7.052982,6.12646 -7.706052,8.7285 -0.937216,3.73417 0.324025,15.11914 2.41496,21.79937 7.373587,23.55752 25.14669,39.71547 47.65145,43.32105 3.82227,0.61239 15.09601,-0.19084 19.6036,-1.39672 z m 121.79222,-0.0506 c 1.82285,-0.86501 3.7999,-2.73375 5.15831,-4.87574 l 2.20262,-3.4732 v -94.37615 -94.37616 l 23.25526,-0.22408 c 26.69813,-0.25727 27.4738,-0.42167 31.43101,-6.66155 4.23273,-6.67432 2.39464,-15.59489 -4.09877,-19.89201 l -3.19593,-2.11498 h -61.61379 -61.61379 l -3.19593,2.11498 c -6.4934,4.29712 -8.33149,13.21769 -4.09877,19.89201 3.95722,6.23988 4.73288,6.40428 31.43101,6.66155 L 256,256.52505 v 94.37616 94.37615 l 2.20262,3.47317 c 1.9481,3.07183 3.78456,4.42854 8.56014,6.32393 1.93987,0.7699 7.20266,0.0314 10.32075,-1.44819 z m 136.39004,-0.35702 c 18.3352,-5.14753 32.58399,-18.73802 39.09465,-37.28848 l 2.15853,-6.15015 v -68.42042 -68.42042 l -2.09444,-6.15015 C 445.93037,247.16007 429.60297,232.605 409.59238,228.4717 381.405,222.64943 353.27325,239.05798 343.81216,266.83966 l -2.09444,6.15015 v 68.42042 68.42042 l 2.15852,6.15015 c 7.31942,20.85479 23.77183,34.82565 45.7595,38.8575 5.45561,1.00039 17.51245,0.2068 23.83781,-1.56902 z m 91.16552,0.35702 c 1.82285,-0.86501 3.79989,-2.73375 5.15831,-4.87574 L 512,445.27736 V 407.7582 370.23904 l 22.87087,-0.0134 c 25.95041,-0.0151 30.14745,-0.55735 39.34265,-5.08261 10.40359,-5.11995 18.90115,-15.63584 21.97795,-27.19814 0.90634,-3.40594 1.12538,-10.96479 1.13274,-39.09043 0.0101,-38.48537 -0.13719,-39.969 -4.85643,-48.92778 -3.37333,-6.40378 -11.91672,-14.76646 -18.24718,-17.86123 -9.56103,-4.6741 -11.78631,-4.88839 -48.27736,-4.64892 l -32.89244,0.21585 -3.19489,2.11498 c -1.7572,1.16323 -3.89363,3.48458 -4.74763,5.15856 -1.53507,3.009 -1.55272,4.22277 -1.55272,106.70752 v 103.6639 l 2.20262,3.47317 c 1.9481,3.07183 3.78455,4.42854 8.56014,6.32393 1.93986,0.7699 7.20265,0.0314 10.32075,-1.44819 z"
     id="path4564"
     inkscape:connector-curvature="0"
     transform="scale(0.74999998)" />
  <path
     style="fill:#aa0000;stroke:none;stroke-width:0.76876879"
     d="m 389.38138,424.77954 c -8.08358,-2.84146 -14.21635,-8.72386 -17.45985,-16.74705 l -1.75937,-4.35201 -0.22403,-58.79504 c -0.14984,-39.32467 0.0505,-60.56432 0.60493,-64.13777 1.55766,-10.03941 7.11635,-17.57269 16.14763,-21.88371 3.64564,-1.74022 5.23452,-2.01831 11.53153,-2.01831 6.51353,0 7.79758,0.24268 11.87404,2.24419 8.60411,4.22456 14.22597,11.82348 15.76519,21.30942 1.02295,6.30427 1.07987,115.39969 0.0634,121.6059 -2.8692,17.51911 -20.40458,28.44738 -36.54351,22.77438 z"
     id="path4566"
     inkscape:connector-curvature="0"
     transform="scale(0.74999998)" />
  <path
     style="fill:#aa0000;stroke:none;stroke-width:0.76876879"
     d="m 512,298.74354 v -42.28228 h 22.94215 c 22.51155,0 23.00574,0.0335 26.33033,1.78372 2.26956,1.19481 4.02271,2.90804 5.3101,5.18918 l 1.92192,3.40548 v 31.13513 c 0,17.12433 -0.26445,32.08015 -0.58768,33.23515 -0.8138,2.90801 -5.03935,7.53009 -8.02426,8.77727 -1.89739,0.79278 -7.86003,1.03864 -25.18919,1.03864 H 512 Z"
     id="path4568"
     inkscape:connector-curvature="0"
     transform="scale(0.74999998)" />
  <path
     style="fill:#ffffff;stroke:none;stroke-width:0.76876879"
     d="m 131.84384,453.66594 c -24.18798,-5.32479 -42.217819,-26.8042 -45.72609,-54.47465 -1.146475,-9.04249 1.344494,-14.47887 8.02462,-17.51323 5.372914,-2.44057 10.37261,-1.66365 14.51485,2.25553 3.16393,2.99356 4.12525,5.25301 5.04331,11.85363 1.89071,13.5937 9.19289,24.75646 19.12947,29.24303 5.04301,2.27702 13.75292,2.27174 18.81022,-0.0114 5.42969,-2.45126 11.67038,-8.76122 14.74666,-14.91036 3.50608,-7.00824 4.51649,-12.36445 4.10199,-21.74482 -0.46848,-10.60228 -2.39647,-15.45592 -8.59577,-21.63949 -5.54505,-5.53101 -10.38843,-7.96532 -25.05226,-12.59137 -16.7208,-5.27499 -25.90599,-10.38539 -34.59459,-19.24755 -7.722675,-7.87693 -12.704069,-17.33686 -15.113596,-28.70152 -1.505467,-7.1006 -1.008455,-26.38856 0.855343,-33.19397 1.937781,-7.07555 8.407227,-19.44947 12.953923,-24.77661 16.95179,-19.86152 41.81045,-25.65286 63.86031,-14.87756 16.28617,7.9587 28.35235,24.11673 32.45042,43.45492 1.74148,8.21772 1.57763,15.21626 -0.43237,18.46851 -4.54977,7.36168 -14.36954,9.13842 -20.76489,3.75709 -3.29911,-2.77603 -4.36668,-5.19008 -5.31711,-12.02342 -2.01242,-14.46872 -8.45666,-24.34839 -19.03752,-29.1864 -5.4771,-2.50436 -13.80433,-2.39317 -19.47434,0.26002 -11.39941,5.33418 -18.44864,18.29581 -18.44864,33.92207 0,14.87683 5.71828,24.62157 18.06606,30.78708 2.11412,1.05562 8.86006,3.508 14.99099,5.44973 18.65601,5.90856 27.73469,11.11287 37.17721,21.31165 6.33363,6.84091 10.5375,15.00007 12.82179,24.88538 1.47536,6.38463 1.64834,8.86253 1.331,19.06703 -0.32651,10.50005 -0.61628,12.49382 -2.76606,19.03204 -3.45781,10.51634 -8.30718,18.35043 -16.23203,26.2226 -5.47636,5.43995 -7.95663,7.25742 -13.92402,10.20311 -11.27152,5.56397 -22.41083,7.13784 -33.39888,4.71891 z"
     id="path4570"
     inkscape:connector-curvature="0"
     transform="scale(0.74999998)" />
  <path
     style="fill:#ffffff;stroke:none;stroke-width:0.76876879"
     d="m 265.22523,453.94202 c -2.48538,-0.98814 -5.94546,-4.28645 -7.56413,-7.21049 -1.16707,-2.10824 -1.29449,-10.41063 -1.48368,-96.67267 l -0.20697,-94.36637 -22.08733,-0.004 c -12.55933,-0.002 -23.29829,-0.34065 -24.89452,-0.78401 -3.56001,-0.98882 -7.99192,-5.82699 -9.09699,-9.9309 -1.62526,-6.03576 1.424,-12.5785 7.15527,-15.35296 3.2711,-1.58351 4.0609,-1.60352 63.29715,-1.60352 h 59.98471 l 3.38819,1.78371 c 6.16642,3.24633 8.98985,11.86726 5.85402,17.87446 -1.71094,3.27762 -5.27189,6.3999 -8.2844,7.26388 -1.44526,0.41449 -12.56933,0.75362 -24.72015,0.75362 H 284.474 l -0.20697,94.36637 c -0.22833,104.10303 0.1574,96.21831 -4.94314,101.04418 -3.73924,3.53788 -9.44896,4.68762 -14.09866,2.83898 z"
     id="path4572"
     inkscape:connector-curvature="0"
     transform="scale(0.74999998)" />
  <path
     style="fill:#ffffff;stroke:none;stroke-width:0.76876879"
     d="m 388.8151,454.06246 c -17.91885,-3.2773 -33.63455,-15.13135 -41.31452,-31.16276 -5.59821,-11.68589 -5.39979,-8.68264 -5.38711,-81.53861 0.0124,-71.41491 -0.0864,-69.68762 4.57634,-79.97112 6.56606,-14.48114 18.72603,-25.42327 34.23511,-30.80642 5.62621,-1.95284 7.0998,-2.1347 17.2973,-2.1347 10.1975,0 11.67109,0.18186 17.2973,2.1347 18.95974,6.58086 33.27288,22.03913 37.66858,40.68228 1.75883,7.4596 1.69969,133.13602 -0.066,140.43761 -4.61397,19.07901 -19.584,34.66681 -39.14004,40.75522 -6.03883,1.88008 -19.10402,2.71268 -25.16689,1.6038 z m 21.35734,-29.91281 c 6.05654,-2.83419 11.36416,-8.03855 14.05709,-13.78357 l 2.05275,-4.37929 0.20935,-63.54094 c 0.20586,-62.48723 0.18314,-63.61096 -1.37033,-67.76299 -3.23658,-8.65054 -9.58033,-14.68902 -18.33141,-17.44929 -6.18302,-1.95025 -10.95232,-1.95025 -17.13534,0 -8.74684,2.75894 -15.09494,8.79908 -18.32723,17.43815 -1.54792,4.13718 -1.57191,5.32362 -1.37033,67.76299 l 0.20517,63.55208 2.05275,4.37929 c 3.51102,7.49031 11.38207,13.88563 19.66184,15.97547 5.06098,1.27741 12.88502,0.34006 18.29569,-2.1919 z"
     id="path4574"
     inkscape:connector-curvature="0"
     transform="scale(0.74999998)" />
  <path
     style="fill:#ffffff;stroke:none;stroke-width:0.76876879"
     d="m 492.3821,453.73227 c -2.864,-1.24792 -7.06562,-5.92568 -7.85448,-8.74457 -0.32322,-1.155 -0.58126,-48.11082 -0.57342,-104.34626 0.0138,-98.64877 0.0653,-102.35009 1.4655,-105.19773 0.79817,-1.62332 2.84171,-3.87197 4.54119,-4.997 l 3.08995,-2.04551 33.38757,-0.21585 c 28.06331,-0.18143 34.14084,-0.0266 38.11122,0.97099 14.8317,3.72655 26.36358,14.89097 30.98286,29.99561 1.28119,4.18936 1.40918,7.82231 1.39483,39.59159 -0.0142,31.47517 -0.1548,35.44102 -1.40348,39.5916 -3.33133,11.07327 -11.27555,20.84152 -21.18442,26.04849 -8.63395,4.53701 -12.64495,5.05811 -39.04999,5.07329 l -23.22107,0.0134 -0.22637,37.47748 c -0.24818,41.0874 -0.073,39.52909 -4.96255,44.15529 -3.90293,3.69277 -9.66021,4.7369 -14.49734,2.62923 z m 66.59027,-112.82949 c 3.56763,-1.21752 6.13175,-3.30509 8.18285,-6.66204 1.71663,-2.80953 1.72581,-2.99707 1.72973,-35.33563 0.004,-31.10419 -0.0633,-32.64282 -1.54878,-35.5547 -0.854,-1.67397 -2.99014,-3.99533 -4.74696,-5.15856 l -3.19424,-2.11497 -23.69749,-0.22366 L 512,255.62956 v 43.08252 43.08251 h 22.17958 c 14.81211,0 23.04761,-0.29623 24.79279,-0.89181 z"
     id="path4576"
     inkscape:connector-curvature="0"
     transform="scale(0.74999998)" />
  <path
     style="fill:#ffffff;stroke:none;stroke-width:0.76876879"
     d="m 217.05538,681.22994 c -9.69946,-1.77443 -19.57906,-5.79733 -27.93826,-11.37627 C 184.9289,667.05845 19.747687,502.36695 14.928854,496.18183 7.112375,486.14912 2.1797219,473.57522 0.80494349,460.17836 c -1.10348123,-10.75315 -1.10348123,-226.78315 0,-237.5363 1.30687361,-12.73515 5.62464261,-24.38561 12.68107151,-34.21683 1.820905,-2.53694 41.304441,-42.55 87.741185,-88.917907 67.23205,-67.132381 85.57131,-85.034808 90.03113,-87.886612 6.35038,-4.0607073 13.59863,-7.2263078 21.37116,-9.3336411 5.09476,-1.38131645 10.46175,-1.44142425 128.70384,-1.44142425 h 123.38739 l 6.20051,1.69824265 c 7.81768,2.1411712 15.08837,5.3907156 21.26775,9.5053617 5.9285,3.947593 172.05028,169.49149 176.99167,176.37598 7.05643,9.83122 11.3742,21.48168 12.68107,34.21683 1.04569,10.19002 1.0825,227.38825 0.0402,237.15854 -1.28611,12.05548 -4.99659,22.8413 -11.10899,32.29213 -3.41846,5.28553 -167.67186,170.36318 -175.32145,176.20124 -5.83992,4.45695 -16.65228,9.70682 -24.6006,11.94466 l -6.15015,1.73158 -121.08108,0.13324 c -96.94388,0.10668 -122.17812,-0.0674 -126.58426,-0.87351 z m 244.59027,-27.70299 c 2.95976,-0.62141 7.97597,-2.38384 11.14714,-3.91651 5.60484,-2.7089 8.11692,-5.13913 90.00497,-87.07303 91.00578,-91.05672 87.32124,-87.04425 90.20659,-98.23516 1.08558,-4.21049 1.21787,-17.57494 1.21787,-123.03369 0,-129.9359 0.28406,-121.91891 -4.67348,-131.89969 -2.12512,-4.27841 -11.57869,-13.98804 -87.07145,-89.42997 -78.44587,-78.393047 -85.05878,-84.807812 -89.72516,-87.036638 -10.47627,-5.003843 -3.23711,-4.742599 -131.4188,-4.742599 -128.1892,0 -120.94793,-0.261463 -131.4188,4.745196 -4.66625,2.231173 -11.27688,8.648012 -89.6652,87.036641 -72.91187,72.91214 -84.961404,85.2751 -87.039088,89.3031 -5.057325,9.80463 -4.765798,1.72864 -4.765798,132.02396 0,105.45875 0.132292,118.8232 1.217879,123.03369 2.885348,11.19091 -0.799195,7.17844 90.206587,98.23516 81.83647,81.88228 84.40365,84.36599 90.00496,87.078 10.74983,5.20478 3.82314,4.9409 131.07508,4.99361 98.62162,0.0408 116.09435,-0.11579 120.6967,-1.08207 z"
     id="path4578"
     inkscape:connector-curvature="0"
     transform="scale(0.74999998)" />
</svg>
